{
.appVersion = "983";
copyright = "Copyright © 2017 Adobe Systems Incorporated (http://www.adobe.com/).";
customParameters = (
{
name = description;
value = "Dr. Ken Lunde (project architect, glyph set definition & overall production); Masataka HATTORI 服部正貴 (production & ideograph elements)";
},
{
name = license;
value = "This Font Software is licensed under the SIL Open Font License, Version 1.1. This Font Software is distributed on an \"AS IS\" BASIS, WITHOUT WARRANTIES OR CONDITIONS OF ANY KIND, either express or implied. See the SIL Open Font License for the specific language, permissions and limitations governing your use of this Font Software.";
},
{
name = licenseURL;
value = "http://scripts.sil.org/OFL";
},
{
name = vendorID;
value = GOOG;
},
{
name = panose;
value = (
2,
2,
5,
0,
0,
0,
0,
0,
0,
0
);
},
{
name = unicodeRanges;
value = (
0,
1,
7,
28,
29,
36,
42,
43,
44,
45,
48,
49,
50,
51,
52,
54,
55,
56,
57,
59,
61,
65,
66,
68
);
},
{
name = codePageRanges;
value = (
1252,
1250,
1251,
1258,
932,
936,
949,
1361
);
},
{
name = ROS;
value = "Adobe-Identity-0";
},
{
name = glyphOrder;
value = (
.notdef,
space
);
}
);
date = "2017-03-21 12:38:32 +0000";
designer = "Ryoko NISHIZUKA 西塚涼子 (kana & ideographs); Frank Grießhammer (Latin, Greek & Cyrillic); Wenlong ZHANG 张文龙 (bopomofo); Sandoll Communications 산돌커뮤니케이션, Soohyun PARK 박수현, Yejin WE 위예진 & Donghoon HAN 한동훈 (hangul elements, letters & syllables)";
designerURL = "http://www.adobe.com/type/";
familyName = "Yaku Han MP";
fontMaster = (
{
alignmentZones = (
"{1900, 0}",
"{1100, 0}",
"{1100, 0}",
"{1100, 0}",
"{1100, 0}",
"{1100, 0}",
"{1100, 0}",
"{1100, 0}",
"{1100, 0}",
"{1100, 0}",
"{1100, 0}",
"{1100, 0}",
"{818, 0}",
"{748, 19}",
"{748, 19}",
"{748, 19}",
"{748, 19}",
"{748, 0}",
"{733, 17}",
"{707, 15}",
"{532, 18}",
"{532, 18}",
"{532, 0}",
"{519, 15}",
"{0, 0}",
"{0, -14}",
"{0, -16}",
"{0, -18}",
"{0, -18}",
"{0, -18}",
"{0, -18}",
"{-174, 0}",
"{-178, 0}",
"{-219, 0}",
"{-250, 0}",
"{-250, 0}",

glyphs = (
{
glyphname = .notdef;
lastChange = "2017-04-16 03:19:30 +0000";
layers = (
{
layerId = "961EFFF7-BD19-492C-BEF2-07E0FEDA6830";
paths = (
{
closed = 1;
nodes = (
"100 -120 LINE",
"900 -120 LINE",
"900 880 LINE",
"100 880 LINE"
);
},
{
closed = 1;
nodes = (
"500 421 LINE",
"182 830 LINE",
"818 830 LINE"
);
},
{
closed = 1;
nodes = (
"532 380 LINE",
"850 789 LINE",
"850 -29 LINE"
);
},
{
closed = 1;
nodes = (
"182 -70 LINE",
"500 339 LINE",
"818 -70 LINE"
);
},
{
closed = 1;
nodes = (
"150 789 LINE",
"468 380 LINE",
"150 -29 LINE"
);
}
);
vertWidth = 1000;
width = 1000;
}
);
note = .notdef;
},
{
glyphname = "comma-han";
lastChange = "2017-04-16 03:20:44 +0000";
layers = (
{
layerId = "961EFFF7-BD19-492C-BEF2-07E0FEDA6830";
paths = (
{
closed = 1;
nodes = (
"50 159 LINE",
"139 94 OFFCURVE",
"177 29 OFFCURVE",
"207 -34 CURVE SMOOTH",
"222 -65 OFFCURVE",
"237 -78 OFFCURVE",
"260 -78 CURVE SMOOTH",
"289 -78 OFFCURVE",
"308 -58 OFFCURVE",
"308 -26 CURVE SMOOTH",
"308 -4 OFFCURVE",
"302 16 OFFCURVE",
"285 41 CURVE SMOOTH",
"251 91 OFFCURVE",
"185 141 OFFCURVE",
"61 174 CURVE"
);
}
);
vertWidth = 1000;
width = 508;
}
);
leftKerningGroup = "comma-han";
note = "comma-han";
unicode = 3001;
},
{
glyphname = ellipsis;
lastChange = "2017-04-16 03:19:30 +0000";
layers = (
{
layerId = "961EFFF7-BD19-492C-BEF2-07E0FEDA6830";
paths = (
{
closed = 1;
nodes = (
"198 323 OFFCURVE",
"224 349 OFFCURVE",
"224 380 CURVE SMOOTH",
"224 411 OFFCURVE",
"198 437 OFFCURVE",
"167 437 CURVE SMOOTH",
"136 437 OFFCURVE",
"110 411 OFFCURVE",
"110 380 CURVE SMOOTH",
"110 349 OFFCURVE",
"136 323 OFFCURVE",
"167 323 CURVE SMOOTH"
);
},
{
closed = 1;
nodes = (
"531 323 OFFCURVE",
"557 349 OFFCURVE",
"557 380 CURVE SMOOTH",
"557 411 OFFCURVE",
"531 437 OFFCURVE",
"500 437 CURVE SMOOTH",
"469 437 OFFCURVE",
"443 411 OFFCURVE",
"443 380 CURVE SMOOTH",
"443 349 OFFCURVE",
"469 323 OFFCURVE",
"500 323 CURVE SMOOTH"
);
},
{
closed = 1;
nodes = (
"864 323 OFFCURVE",
"890 349 OFFCURVE",
"890 380 CURVE SMOOTH",
"890 411 OFFCURVE",
"864 437 OFFCURVE",
"833 437 CURVE SMOOTH",
"802 437 OFFCURVE",
"776 411 OFFCURVE",
"776 380 CURVE SMOOTH",
"776 349 OFFCURVE",
"802 323 OFFCURVE",
"833 323 CURVE SMOOTH"
);
}
);
vertWidth = 1000;
width = 1000;
}
);
note = ellipsis;
unicode = 2026;
},
{
glyphname = "period-han";
lastChange = "2017-04-16 03:20:55 +0000";
layers = (
{
layerId = "961EFFF7-BD19-492C-BEF2-07E0FEDA6830";
paths = (
{
closed = 1;
nodes = (
"269 -82 OFFCURVE",
"331 -19 OFFCURVE",
"331 59 CURVE SMOOTH",
"331 137 OFFCURVE",
"269 199 OFFCURVE",
"191 199 CURVE SMOOTH",
"113 199 OFFCURVE",
"50 137 OFFCURVE",
"50 59 CURVE SMOOTH",
"50 -19 OFFCURVE",
"113 -82 OFFCURVE",
"191 -82 CURVE SMOOTH"
);
},
{
closed = 1;
nodes = (
"249 165 OFFCURVE",
"297 117 OFFCURVE",
"297 59 CURVE SMOOTH",
"297 1 OFFCURVE",
"249 -48 OFFCURVE",
"191 -48 CURVE SMOOTH",
"132 -48 OFFCURVE",
"84 1 OFFCURVE",
"84 59 CURVE SMOOTH",
"84 117 OFFCURVE",
"132 165 OFFCURVE",
"191 165 CURVE SMOOTH"
);
}
);
vertWidth = 1000;
width = 731;
}
);
leftKerningGroup = "comma-han";
note = "period-han";
unicode = 3002;
},
{
glyphname = colon.full;
lastChange = "2017-04-16 03:21:05 +0000";
layers = (
{
layerId = "961EFFF7-BD19-492C-BEF2-07E0FEDA6830";
paths = (
{
closed = 1;
nodes = (
"150 67 OFFCURVE",
"181 35 OFFCURVE",
"222 35 CURVE SMOOTH",
"262 35 OFFCURVE",
"294 67 OFFCURVE",
"294 107 CURVE SMOOTH",
"294 146 OFFCURVE",
"262 179 OFFCURVE",
"222 179 CURVE SMOOTH",
"181 179 OFFCURVE",
"150 146 OFFCURVE",
"150 107 CURVE SMOOTH"
);
},
{
closed = 1;
nodes = (
"150 547 OFFCURVE",
"181 515 OFFCURVE",
"222 515 CURVE SMOOTH",
"262 515 OFFCURVE",
"294 547 OFFCURVE",
"294 587 CURVE SMOOTH",
"294 626 OFFCURVE",
"262 659 OFFCURVE",
"222 659 CURVE SMOOTH",
"181 659 OFFCURVE",
"150 626 OFFCURVE",
"150 587 CURVE SMOOTH"
);
}
);
vertWidth = 1000;
width = 444;
}
);
note = colon.full;
unicode = FF1A;
},
{
glyphname = exclam.full;
lastChange = "2017-04-16 03:21:05 +0000";
layers = (
{
layerId = "961EFFF7-BD19-492C-BEF2-07E0FEDA6830";
paths = (
{
closed = 1;
nodes = (
"257 -12 OFFCURVE",
"286 18 OFFCURVE",
"286 55 CURVE SMOOTH",
"286 91 OFFCURVE",
"257 121 OFFCURVE",
"218 121 CURVE SMOOTH",
"178 121 OFFCURVE",
"150 91 OFFCURVE",
"150 55 CURVE SMOOTH",
"150 18 OFFCURVE",
"178 -12 OFFCURVE",
"218 -12 CURVE SMOOTH"
);
},
{
closed = 1;
nodes = (
"180 767 OFFCURVE",
"156 744 OFFCURVE",
"156 693 CURVE SMOOTH",
"156 639 OFFCURVE",
"165 552 OFFCURVE",
"185 371 CURVE SMOOTH",
"199 217 LINE",
"237 217 LINE",
"251 371 LINE SMOOTH",
"271 551 OFFCURVE",
"280 639 OFFCURVE",
"280 693 CURVE SMOOTH",
"280 744 OFFCURVE",
"256 767 OFFCURVE",
"218 767 CURVE SMOOTH"
);
}
);
vertWidth = 1000;
width = 436;
}
);
note = exclam.full;
unicode = FF01;
},
{
glyphname = question.full;
lastChange = "2017-04-16 03:21:05 +0000";
layers = (
{
layerId = "961EFFF7-BD19-492C-BEF2-07E0FEDA6830";
paths = (
{
closed = 1;
nodes = (
"320 119 OFFCURVE",
"292 89 OFFCURVE",
"292 53 CURVE SMOOTH",
"292 17 OFFCURVE",
"320 -12 OFFCURVE",
"358 -12 CURVE SMOOTH",
"397 -12 OFFCURVE",
"425 17 OFFCURVE",
"425 53 CURVE SMOOTH",
"425 89 OFFCURVE",
"397 119 OFFCURVE",
"358 119 CURVE SMOOTH"
);
},
{
closed = 1;
nodes = (
"289 711 LINE",
"318 722 OFFCURVE",
"338 725 OFFCURVE",
"369 725 CURVE SMOOTH",
"456 725 OFFCURVE",
"524 690 OFFCURVE",
"524 597 CURVE SMOOTH",
"524 532 OFFCURVE",
"488 486 OFFCURVE",
"419 434 CURVE SMOOTH",
"349 381 OFFCURVE",
"330 354 OFFCURVE",
"330 311 CURVE SMOOTH",
"330 284 OFFCURVE",
"333 245 OFFCURVE",
"338 209 CURVE",
"376 209 LINE",
"381 280 LINE SMOOTH",
"384 330 OFFCURVE",
"407 350 OFFCURVE",
"475 392 CURVE SMOOTH",
"576 455 OFFCURVE",
"619 514 OFFCURVE",
"619 592 CURVE SMOOTH",
"619 695 OFFCURVE",
"541 767 OFFCURVE",
"390 767 CURVE SMOOTH",
"261 767 OFFCURVE",
"163 697 OFFCURVE",
"150 586 CURVE",
"161 564 OFFCURVE",
"179 557 OFFCURVE",
"198 557 CURVE SMOOTH",
"232 557 OFFCURVE",
"251 579 OFFCURVE",
"265 631 CURVE SMOOTH"
);
}
);
vertWidth = 1000;
width = 769;
}
);
note = question.full;
unicode = FF1F;
},
{
glyphname = semicolon.full;
lastChange = "2017-04-16 03:21:05 +0000";
layers = (
{
layerId = "961EFFF7-BD19-492C-BEF2-07E0FEDA6830";
paths = (
{
closed = 1;
nodes = (
"166 -96 LINE",
"272 -49 OFFCURVE",
"308 50 OFFCURVE",
"308 129 CURVE SMOOTH",
"308 184 OFFCURVE",
"277 222 OFFCURVE",
"231 222 CURVE SMOOTH",
"187 222 OFFCURVE",
"162 191 OFFCURVE",
"162 157 CURVE SMOOTH",
"162 102 OFFCURVE",
"214 84 OFFCURVE",
"253 70 CURVE",
"250 29 OFFCURVE",
"226 -31 OFFCURVE",
"150 -69 CURVE"
);
},
{
closed = 1;
nodes = (
"163 547 OFFCURVE",
"195 515 OFFCURVE",
"236 515 CURVE SMOOTH",
"276 515 OFFCURVE",
"307 547 OFFCURVE",
"307 587 CURVE SMOOTH",
"307 626 OFFCURVE",
"276 659 OFFCURVE",
"236 659 CURVE SMOOTH",
"195 659 OFFCURVE",
"163 626 OFFCURVE",
"163 587 CURVE SMOOTH"
);
}
);
vertWidth = 1000;
width = 458;
}
);
note = semicolon.full;
unicode = FF1B;
},
{
glyphname = blacklenticularbracketleft;
lastChange = "2017-04-16 03:21:19 +0000";
layers = (
{
layerId = "961EFFF7-BD19-492C-BEF2-07E0FEDA6830";
paths = (
{
closed = 1;
nodes = (
"543 -68 LINE",
"385 4 OFFCURVE",
"280 158 OFFCURVE",
"280 380 CURVE SMOOTH",
"280 602 OFFCURVE",
"385 756 OFFCURVE",
"543 828 CURVE",
"543 845 LINE",
"200 845 LINE",
"200 -85 LINE",
"543 -85 LINE"
);
}
);
vertWidth = 1000;
width = 573;
}
);
note = blacklenticularbracketleft;
unicode = 3010;
},
{
glyphname = blacklenticularbracketright;
lastChange = "2017-04-16 03:21:29 +0000";
layers = (
{
layerId = "961EFFF7-BD19-492C-BEF2-07E0FEDA6830";
paths = (
{
closed = 1;
nodes = (
"30 -85 LINE",
"373 -85 LINE",
"373 845 LINE",
"30 845 LINE",
"30 828 LINE",
"188 756 OFFCURVE",
"293 602 OFFCURVE",
"293 380 CURVE SMOOTH",
"293 158 OFFCURVE",
"188 4 OFFCURVE",
"30 -68 CURVE"
);
}
);
vertWidth = 1000;
width = 573;
}
);
note = blacklenticularbracketright;
unicode = 3011;
},
{
glyphname = braceleft.full;
lastChange = "2017-04-16 03:21:19 +0000";
layers = (
{
layerId = "961EFFF7-BD19-492C-BEF2-07E0FEDA6830";
paths = (
{
closed = 1;
nodes = (
"592 825 LINE",
"592 870 LINE",
"542 870 LINE SMOOTH",
"400 870 OFFCURVE",
"326 820 OFFCURVE",
"326 727 CURVE SMOOTH",
"326 642 OFFCURVE",
"353 562 OFFCURVE",
"353 502 CURVE SMOOTH",
"353 450 OFFCURVE",
"319 419 OFFCURVE",
"200 401 CURVE",
"200 359 LINE",
"319 340 OFFCURVE",
"353 310 OFFCURVE",
"353 259 CURVE SMOOTH",
"353 198 OFFCURVE",
"326 118 OFFCURVE",
"326 32 CURVE SMOOTH",
"326 -61 OFFCURVE",
"400 -110 OFFCURVE",
"542 -110 CURVE SMOOTH",
"592 -110 LINE",
"592 -66 LINE",
"542 -62 LINE SMOOTH",
"442 -56 OFFCURVE",
"408 -25 OFFCURVE",
"408 42 CURVE SMOOTH",
"408 116 OFFCURVE",
"416 181 OFFCURVE",
"416 244 CURVE SMOOTH",
"416 305 OFFCURVE",
"381 359 OFFCURVE",
"293 380 CURVE",
"381 401 OFFCURVE",
"416 454 OFFCURVE",
"416 516 CURVE SMOOTH",
"416 577 OFFCURVE",
"408 643 OFFCURVE",
"408 718 CURVE SMOOTH",
"408 784 OFFCURVE",
"442 818 OFFCURVE",
"542 823 CURVE SMOOTH"
);
}
);
vertWidth = 1000;
width = 622;
}
);
note = braceleft.full;
unicode = FF5B;
},
{
glyphname = braceright.full;
lastChange = "2017-04-16 03:21:29 +0000";
layers = (
{
layerId = "961EFFF7-BD19-492C-BEF2-07E0FEDA6830";
paths = (
{
closed = 1;
nodes = (
"422 401 LINE",
"303 420 OFFCURVE",
"269 450 OFFCURVE",
"269 501 CURVE SMOOTH",
"269 562 OFFCURVE",
"296 642 OFFCURVE",
"296 728 CURVE SMOOTH",
"296 821 OFFCURVE",
"222 870 OFFCURVE",
"80 870 CURVE SMOOTH",
"30 870 LINE",
"30 826 LINE",
"80 822 LINE SMOOTH",
"180 816 OFFCURVE",
"214 785 OFFCURVE",
"214 718 CURVE SMOOTH",
"214 644 OFFCURVE",
"206 579 OFFCURVE",
"206 516 CURVE SMOOTH",
"206 455 OFFCURVE",
"241 401 OFFCURVE",
"329 380 CURVE",
"241 359 OFFCURVE",
"206 306 OFFCURVE",
"206 244 CURVE SMOOTH",
"206 183 OFFCURVE",
"214 117 OFFCURVE",
"214 42 CURVE SMOOTH",
"214 -24 OFFCURVE",
"180 -58 OFFCURVE",
"80 -63 CURVE SMOOTH",
"30 -65 LINE",
"30 -110 LINE",
"80 -110 LINE SMOOTH",
"222 -110 OFFCURVE",
"296 -60 OFFCURVE",
"296 33 CURVE SMOOTH",
"296 118 OFFCURVE",
"269 198 OFFCURVE",
"269 258 CURVE SMOOTH",
"269 310 OFFCURVE",
"303 341 OFFCURVE",
"422 359 CURVE"
);
}
);
vertWidth = 1000;
width = 622;
}
);
note = braceright.full;
unicode = FF5D;
},
{
glyphname = cornerbracketleft;
lastChange = "2017-04-16 03:21:19 +0000";
layers = (
{
layerId = "961EFFF7-BD19-492C-BEF2-07E0FEDA6830";
paths = (
{
closed = 1;
nodes = (
"200 198 LINE",
"238 198 LINE",
"238 809 LINE",
"510 809 LINE",
"510 845 LINE",
"200 845 LINE"
);
}
);
vertWidth = 1000;
width = 540;
}
);
note = cornerbracketleft;
unicode = 300C;
},
{
glyphname = cornerbracketright;
lastChange = "2017-04-16 03:21:29 +0000";
layers = (
{
layerId = "961EFFF7-BD19-492C-BEF2-07E0FEDA6830";
paths = (
{
closed = 1;
nodes = (
"340 562 LINE",
"302 562 LINE",
"302 -49 LINE",
"30 -49 LINE",
"30 -85 LINE",
"340 -85 LINE"
);
}
);
vertWidth = 1000;
width = 540;
}
);
note = cornerbracketright;
unicode = 300D;
},
{
glyphname = dblanglebracketleft;
lastChange = "2017-04-16 03:21:19 +0000";
layers = (
{
layerId = "961EFFF7-BD19-492C-BEF2-07E0FEDA6830";
paths = (
{
closed = 1;
nodes = (
"240 380 LINE",
"498 830 LINE",
"469 848 LINE",
"200 380 LINE",
"469 -88 LINE",
"498 -70 LINE"
);
},
{
closed = 1;
nodes = (
"383 380 LINE",
"640 830 LINE",
"611 848 LINE",
"343 380 LINE",
"611 -88 LINE",
"640 -70 LINE"
);
}
);
vertWidth = 1000;
width = 670;
}
);
note = dblanglebracketleft;
unicode = 300A;
},
{
glyphname = dblanglebracketright;
lastChange = "2017-04-16 03:21:29 +0000";
layers = (
{
layerId = "961EFFF7-BD19-492C-BEF2-07E0FEDA6830";
paths = (
{
closed = 1;
nodes = (
"201 -88 LINE",
"470 380 LINE",
"201 848 LINE",
"172 830 LINE",
"430 380 LINE",
"172 -70 LINE"
);
},
{
closed = 1;
nodes = (
"59 -88 LINE",
"327 380 LINE",
"59 848 LINE",
"30 830 LINE",
"287 380 LINE",
"30 -70 LINE"
);
}
);
vertWidth = 1000;
width = 670;
}
);
note = dblanglebracketright;
unicode = 300B;
},
{
glyphname = tortoiseshellbracketleft;
lastChange = "2017-04-16 03:21:19 +0000";
layers = (
{
layerId = "961EFFF7-BD19-492C-BEF2-07E0FEDA6830";
paths = (
{
closed = 1;
nodes = (
"433 -89 LINE",
"450 -56 LINE",
"239 42 LINE",
"239 718 LINE",
"450 816 LINE",
"433 849 LINE",
"200 740 LINE",
"200 20 LINE"
);
}
);
vertWidth = 1000;
width = 480;
}
);
note = tortoiseshellbracketleft;
unicode = 3014;
},
{
glyphname = tortoiseshellbracketright;
lastChange = "2017-04-16 03:21:29 +0000";
layers = (
{
layerId = "961EFFF7-BD19-492C-BEF2-07E0FEDA6830";
paths = (
{
closed = 1;
nodes = (
"47 -89 LINE",
"280 20 LINE",
"280 740 LINE",
"47 849 LINE",
"30 816 LINE",
"241 717 LINE",
"241 43 LINE",
"30 -56 LINE"
);
}
);
vertWidth = 1000;
width = 480;
}
);
note = tortoiseshellbracketright;
unicode = 3015;
},
{
glyphname = whitecornerbracketleft;
lastChange = "2017-04-16 03:21:19 +0000";
layers = (
{
layerId = "961EFFF7-BD19-492C-BEF2-07E0FEDA6830";
paths = (
{
closed = 1;
nodes = (
"556 700 LINE",
"556 846 LINE",
"200 846 LINE",
"200 191 LINE",
"350 191 LINE",
"350 700 LINE"
);
},
{
closed = 1;
nodes = (
"528 818 LINE",
"528 728 LINE",
"322 728 LINE",
"322 219 LINE",
"228 219 LINE",
"228 818 LINE"
);
}
);
vertWidth = 1000;
width = 586;
}
);
note = whitecornerbracketleft;
unicode = 300E;
},
{
glyphname = whitecornerbracketright;
lastChange = "2017-04-16 03:21:29 +0000";
layers = (
{
layerId = "961EFFF7-BD19-492C-BEF2-07E0FEDA6830";
paths = (
{
closed = 1;
nodes = (
"30 61 LINE",
"30 -85 LINE",
"386 -85 LINE",
"386 569 LINE",
"236 569 LINE",
"236 61 LINE"
);
},
{
closed = 1;
nodes = (
"58 -57 LINE",
"58 33 LINE",
"264 33 LINE",
"264 541 LINE",
"358 541 LINE",
"358 -57 LINE"
);
}
);
vertWidth = 1000;
width = 586;
}
);
note = whitecornerbracketright;
unicode = 300F;
},
{
glyphname = whitelenticularbracketleft;
lastChange = "2017-04-16 03:21:19 +0000";
layers = (
{
layerId = "961EFFF7-BD19-492C-BEF2-07E0FEDA6830";
paths = (
{
closed = 1;
nodes = (
"550 -64 LINE",
"398 2 OFFCURVE",
"289 158 OFFCURVE",
"289 380 CURVE SMOOTH",
"289 602 OFFCURVE",
"398 758 OFFCURVE",
"550 824 CURVE",
"550 845 LINE",
"200 845 LINE",
"200 -85 LINE",
"550 -85 LINE"
);
},
{
closed = 1;
nodes = (
"228 -57 LINE",
"228 817 LINE",
"479 817 LINE",
"392 764 OFFCURVE",
"261 632 OFFCURVE",
"261 380 CURVE SMOOTH",
"261 128 OFFCURVE",
"392 -4 OFFCURVE",
"479 -57 CURVE"
);
}
);
vertWidth = 1000;
width = 580;
}
);
note = whitelenticularbracketleft;
unicode = 3016;
},
{
glyphname = whitelenticularbracketright;
lastChange = "2017-04-16 03:21:29 +0000";
layers = (
{
layerId = "961EFFF7-BD19-492C-BEF2-07E0FEDA6830";
paths = (
{
closed = 1;
nodes = (
"380 -85 LINE",
"380 845 LINE",
"30 845 LINE",
"30 824 LINE",
"182 758 OFFCURVE",
"291 602 OFFCURVE",
"291 380 CURVE SMOOTH",
"291 158 OFFCURVE",
"182 2 OFFCURVE",
"30 -64 CURVE",
"30 -85 LINE"
);
},
{
closed = 1;
nodes = (
"319 632 OFFCURVE",
"189 764 OFFCURVE",
"102 817 CURVE",
"352 817 LINE",
"352 -57 LINE",
"102 -57 LINE",
"189 -4 OFFCURVE",
"319 128 OFFCURVE",
"319 380 CURVE SMOOTH"
);
}
);
vertWidth = 1000;
width = 580;
}
);
note = whitelenticularbracketright;
unicode = 3017;
},
{
glyphname = bracketleft.full;
lastChange = "2017-04-16 03:21:19 +0000";
layers = (
{
layerId = "961EFFF7-BD19-492C-BEF2-07E0FEDA6830";
paths = (
{
closed = 1;
nodes = (
"200 -85 LINE",
"450 -85 LINE",
"450 -49 LINE",
"239 -49 LINE",
"239 809 LINE",
"450 809 LINE",
"450 845 LINE",
"200 845 LINE"
);
}
);
vertWidth = 1000;
width = 480;
}
);
note = bracketleft.full;
unicode = FF3B;
},
{
glyphname = bracketright.full;
lastChange = "2017-04-16 03:21:29 +0000";
layers = (
{
layerId = "961EFFF7-BD19-492C-BEF2-07E0FEDA6830";
paths = (
{
closed = 1;
nodes = (
"280 -85 LINE",
"280 845 LINE",
"30 845 LINE",
"30 809 LINE",
"241 809 LINE",
"241 -49 LINE",
"30 -49 LINE",
"30 -85 LINE"
);
}
);
vertWidth = 1000;
width = 480;
}
);
note = bracketright.full;
unicode = FF3D;
},
{
glyphname = parenleft.full;
lastChange = "2017-04-16 03:21:19 +0000";
layers = (
{
layerId = "961EFFF7-BD19-492C-BEF2-07E0FEDA6830";
paths = (
{
closed = 1;
nodes = (
"200 139 OFFCURVE",
"335 -3 OFFCURVE",
"473 -89 CURVE",
"490 -70 LINE",
"374 25 OFFCURVE",
"274 168 OFFCURVE",
"274 380 CURVE SMOOTH",
"274 592 OFFCURVE",
"374 735 OFFCURVE",
"490 830 CURVE",
"473 849 LINE",
"335 763 OFFCURVE",
"200 621 OFFCURVE",
"200 380 CURVE SMOOTH"
);
}
);
vertWidth = 1000;
width = 520;
}
);
note = parenleft.full;
unicode = FF08;
},
{
glyphname = parenright.full;
lastChange = "2017-04-16 03:21:29 +0000";
layers = (
{
layerId = "961EFFF7-BD19-492C-BEF2-07E0FEDA6830";
paths = (
{
closed = 1;
nodes = (
"30 830 LINE",
"146 735 OFFCURVE",
"246 592 OFFCURVE",
"246 380 CURVE SMOOTH",
"246 168 OFFCURVE",
"146 25 OFFCURVE",
"30 -70 CURVE",
"47 -89 LINE",
"185 -3 OFFCURVE",
"320 139 OFFCURVE",
"320 380 CURVE SMOOTH",
"320 621 OFFCURVE",
"185 763 OFFCURVE",
"47 849 CURVE"
);
}
);
vertWidth = 1000;
width = 520;
}
);
note = parenright.full;
unicode = FF09;
},
{
glyphname = "dot-kata";
lastChange = "2017-04-16 03:21:05 +0000";
layers = (
{
layerId = "961EFFF7-BD19-492C-BEF2-07E0FEDA6830";
paths = (
{
closed = 1;
nodes = (
"346 434 OFFCURVE",
"302 478 OFFCURVE",
"248 478 CURVE SMOOTH",
"194 478 OFFCURVE",
"150 434 OFFCURVE",
"150 380 CURVE SMOOTH",
"150 326 OFFCURVE",
"194 282 OFFCURVE",
"248 282 CURVE SMOOTH",
"302 282 OFFCURVE",
"346 326 OFFCURVE",
"346 380 CURVE SMOOTH"
);
}
